<svg width="55" height="55" viewBox="0 0 55 55" fill="none" xmlns="http://www.w3.org/2000/svg">
<circle cx="27.5" cy="27.5" r="27.5" fill="#FFAFAF"/>
<path d="M38.5409 31L29.8742 17C29.6852 16.6922 29.4112 16.4362 29.08 16.2581C28.7489 16.0799 28.3725 15.9861 27.9892 15.9861C27.6059 15.9861 27.2295 16.0799 26.8984 16.2581C26.5672 16.4362 26.2932 16.6922 26.1042 17L17.4375 31C17.2465 31.3054 17.1464 31.6519 17.1472 32.0045C17.1481 32.3571 17.2499 32.7032 17.4424 33.0078C17.6348 33.3124 17.9111 33.5646 18.2432 33.7388C18.5753 33.9131 18.9514 34.0032 19.3334 34H36.6667C37.0469 33.9996 37.4202 33.907 37.7493 33.7313C38.0783 33.5556 38.3515 33.3031 38.5414 32.9991C38.7313 32.6951 38.8313 32.3504 38.8312 31.9995C38.8311 31.6486 38.731 31.3039 38.5409 31Z" stroke="#FF4443" stroke-width="2" stroke-linecap="round" stroke-linejoin="round"/>
<path d="M28 22V26" stroke="#FF4443" stroke-width="2" stroke-linecap="round" stroke-linejoin="round"/>
<path d="M28 30H28.01" stroke="#FF4443" stroke-width="2" stroke-linecap="round" stroke-linejoin="round"/>
</svg>
