<svg width="55" height="55" viewBox="0 0 55 55" fill="none" xmlns="http://www.w3.org/2000/svg">
<circle cx="27.5" cy="27.5" r="27.5" fill="#DCFCE7"/>
<path d="M37.8011 26C38.2578 28.2413 37.9323 30.5714 36.879 32.6018C35.8256 34.6322 34.108 36.2401 32.0126 37.1573C29.9172 38.0746 27.5707 38.2458 25.3644 37.6424C23.1581 37.039 21.2253 35.6974 19.8884 33.8414C18.5515 31.9854 17.8912 29.7272 18.0178 27.4434C18.1443 25.1595 19.05 22.9881 20.5838 21.2912C22.1175 19.5943 24.1867 18.4744 26.4462 18.1185C28.7056 17.7625 31.0189 18.1919 33.0001 19.335" stroke="#17A34A" stroke-width="2" stroke-linecap="round" stroke-linejoin="round"/>
<path d="M25 27L28 30L38 20" stroke="#17A34A" stroke-width="2" stroke-linecap="round" stroke-linejoin="round"/>
</svg>
