<svg width="55" height="55" viewBox="0 0 55 55" fill="none" xmlns="http://www.w3.org/2000/svg">
<circle cx="27.5" cy="27.5" r="27.5" fill="#D9D9D9" fill-opacity="0.4"/>
<path d="M38.5408 31L29.8742 17C29.6852 16.6922 29.4111 16.4362 29.08 16.258C28.7488 16.0799 28.3724 15.9861 27.9892 15.9861C27.6059 15.9861 27.2295 16.0799 26.8983 16.258C26.5672 16.4362 26.2931 16.6922 26.1042 17L17.4375 31C17.2465 31.3053 17.1463 31.6519 17.1472 32.0045C17.148 32.3571 17.2498 32.7032 17.4423 33.0078C17.6348 33.3124 17.9111 33.5646 18.2432 33.7388C18.5752 33.9131 18.9513 34.0032 19.3333 34H36.6667C37.0468 33.9996 37.4201 33.9069 37.7492 33.7313C38.0783 33.5556 38.3515 33.3031 38.5414 32.9991C38.7313 32.6951 38.8312 32.3504 38.8311 31.9995C38.831 31.6486 38.7309 31.3039 38.5408 31Z" stroke="white" stroke-width="2" stroke-linecap="round" stroke-linejoin="round"/>
<path d="M28 22V26" stroke="white" stroke-width="2" stroke-linecap="round" stroke-linejoin="round"/>
<path d="M28 30H28.01" stroke="white" stroke-width="2" stroke-linecap="round" stroke-linejoin="round"/>
</svg>
