<svg width="23" height="24" viewBox="0 0 23 24" fill="none" xmlns="http://www.w3.org/2000/svg">
<path d="M18.9189 10.1081C18.9189 14.8312 13.6793 19.7501 11.9199 21.2693C11.756 21.3926 11.5564 21.4592 11.3514 21.4592C11.1463 21.4592 10.9467 21.3926 10.7828 21.2693C9.02338 19.7501 3.78378 14.8312 3.78378 10.1081C3.78378 8.10107 4.58108 6.17623 6.00027 4.75703C7.41947 3.33784 9.34431 2.54054 11.3514 2.54054C13.3584 2.54054 15.2832 3.33784 16.7024 4.75703C18.1216 6.17623 18.9189 8.10107 18.9189 10.1081Z" stroke="white" stroke-width="2" stroke-linecap="round" stroke-linejoin="round"/>
<path d="M11.3513 12.9459C12.9186 12.9459 14.1892 11.6754 14.1892 10.1081C14.1892 8.54081 12.9186 7.27027 11.3513 7.27027C9.78405 7.27027 8.51351 8.54081 8.51351 10.1081C8.51351 11.6754 9.78405 12.9459 11.3513 12.9459Z" stroke="white" stroke-width="2" stroke-linecap="round" stroke-linejoin="round"/>
</svg>
